<svg xmlns="http://www.w3.org/2000/svg" viewBox="0 0 64 64" role="img" aria-label="Salud Mental UBB">
  <defs>
    <linearGradient id="bg" x1="8" y1="8" x2="56" y2="56" gradientUnits="userSpaceOnUse">
      <stop offset="0" stop-color="#0f766e"/>
      <stop offset="1" stop-color="#f97316"/>
    </linearGradient>
  </defs>
  <rect x="4" y="4" width="56" height="56" rx="14" fill="url(#bg)"/>
  <circle cx="32" cy="32" r="17" fill="rgba(255,255,255,0.15)" stroke="rgba(255,255,255,0.5)"/>
  <path d="M32 44c-7-4.2-11.5-8.4-11.5-14.2 0-3.8 2.9-6.8 6.5-6.8 2 0 3.9.9 5 2.6 1.1-1.7 3-2.6 5-2.6 3.6 0 6.5 3 6.5 6.8 0 5.8-4.5 10-11.5 14.2Z" fill="#fff"/>
  <path d="M23 32h4l2-3.2 2.8 6 2.1-4H41" stroke="#0f766e" stroke-width="2.5" stroke-linecap="round" stroke-linejoin="round" fill="none"/>
</svg>
